<svg xmlns="http://www.w3.org/2000/svg" width="512" height="512" viewBox="0 0 512 512">
  <defs>
    <linearGradient id="grad1" x1="0%" y1="0%" x2="100%" y2="100%">
      <stop offset="0%" style="stop-color:#FF9900;stop-opacity:1" />
      <stop offset="100%" style="stop-color:#FF5500;stop-opacity:1" />
    </linearGradient>
  </defs>
  <circle cx="256" cy="256" r="256" fill="url(#grad1)"/>
  <g transform="translate(128,128) scale(0.5)">
    <path d="M256 32C132.3 32 32 132.3 32 256s100.3 224 224 224 224-100.3 224-224S379.7 32 256 32zm0 416c-105.9 0-192-86.1-192-192S150.1 64 256 64s192 86.1 192 192-86.1 192-192 192z" fill="#ffffff"/>
    <path d="M292.5 168.2h-73c-4.4 0-8 3.6-8 8v160c0 4.4 3.6 8 8 8h73c61.8 0 112-50.2 112-112s-50.2-64-112-64zm0 192h-57v-144h57c44.1 0 80 35.9 80 80s-35.9 64-80 64z" fill="#ffffff"/>
  </g>
</svg>
